<svg width="185" height="557" viewBox="0 0 185 557" fill="none" xmlns="http://www.w3.org/2000/svg">
<g style="mix-blend-mode:color-dodge">
<path d="M83.4724 161.643L58.1751 147.039L32.8778 161.643V190.851L58.1751 205.46" stroke="#ffffff" stroke-width="0.854442" stroke-miterlimit="10"/>
<path d="M-43.0099 147.208L-17.7126 161.812L7.58473 147.208L-17.7126 132.598L-43.0099 147.208Z" stroke="#ffffff" stroke-width="0.854442" stroke-miterlimit="10"/>
<path d="M7.58473 205.84L-17.7126 191.236L-43.0099 205.84" stroke="#ffffff" stroke-width="0.854442" stroke-miterlimit="10"/>
<path d="M-43.0049 89.1397L-17.7076 103.744L7.58974 89.1397" stroke="#ffffff" stroke-width="0.854442" stroke-miterlimit="10"/>
<path d="M32.877 132.598L7.58496 147.208L32.877 161.812" stroke="#ffffff" stroke-width="0.854442" stroke-miterlimit="10"/>
<path d="M184.66 220.065L159.363 234.669L134.065 220.065V190.852L159.363 176.248" stroke="#ffffff" stroke-width="0.854442" stroke-miterlimit="10"/>
<path d="M-17.7074 249.104L7.58991 234.5L32.8872 249.104V278.317L7.58991 292.921" stroke="#ffffff" stroke-width="0.854442" stroke-miterlimit="10"/>
<path d="M108.774 234.668L83.4768 249.272L58.1794 234.668L83.4768 220.064L108.774 234.668Z" stroke="#ffffff" stroke-width="0.854442" stroke-miterlimit="10"/>
<path d="M58.1794 293.3L83.4768 278.696L108.774 293.3" stroke="#ffffff" stroke-width="0.854442" stroke-miterlimit="10"/>
<path d="M108.763 176.601L83.4709 191.205L58.1736 176.601" stroke="#ffffff" stroke-width="0.854442" stroke-miterlimit="10"/>
<path d="M32.8875 220.064L58.1796 234.668L32.8875 249.272" stroke="#ffffff" stroke-width="0.854442" stroke-miterlimit="10"/>
<path d="M134.066 249.272L108.774 234.668L134.066 220.064" stroke="#ffffff" stroke-width="0.854442" stroke-miterlimit="10"/>
<path d="M83.4773 220.064V191.189" stroke="#ffffff" stroke-width="0.854442" stroke-miterlimit="10"/>
<path d="M83.4773 278.148V249.272" stroke="#ffffff" stroke-width="0.854442" stroke-miterlimit="10"/>
<path d="M83.4724 336.891L58.1751 322.287L32.8778 336.891V366.099L58.1751 380.708" stroke="#ffffff" stroke-width="0.854442" stroke-miterlimit="10"/>
<path d="M-43.0099 322.455L-17.7126 337.059L7.58473 322.455L-17.7126 307.846L-43.0099 322.455Z" stroke="#ffffff" stroke-width="0.854442" stroke-miterlimit="10"/>
<path d="M7.58473 381.087L-17.7126 366.483L-43.0099 381.087" stroke="#ffffff" stroke-width="0.854442" stroke-miterlimit="10"/>
<path d="M-43.0049 264.387L-17.7076 278.991L7.58974 264.387" stroke="#ffffff" stroke-width="0.854442" stroke-miterlimit="10"/>
<path d="M32.877 307.846L7.58496 322.455L32.877 337.059" stroke="#ffffff" stroke-width="0.854442" stroke-miterlimit="10"/>
<path d="M184.66 395.311L159.363 409.915L134.065 395.311V366.098L159.363 351.494" stroke="#ffffff" stroke-width="0.854442" stroke-miterlimit="10"/>
<path d="M-17.7074 424.351L7.58991 409.747L32.8872 424.351V453.564L7.58991 468.168" stroke="#ffffff" stroke-width="0.854442" stroke-miterlimit="10"/>
<path d="M108.774 409.915L83.4768 424.519L58.1794 409.915L83.4768 395.311L108.774 409.915Z" stroke="#ffffff" stroke-width="0.854442" stroke-miterlimit="10"/>
<path d="M58.1794 468.547L83.4768 453.943L108.774 468.547" stroke="#ffffff" stroke-width="0.854442" stroke-miterlimit="10"/>
<path d="M108.763 351.847L83.4709 366.451L58.1736 351.847" stroke="#ffffff" stroke-width="0.854442" stroke-miterlimit="10"/>
<path d="M32.8875 395.311L58.1796 409.915L32.8875 424.519" stroke="#ffffff" stroke-width="0.854442" stroke-miterlimit="10"/>
<path d="M134.066 424.519L108.774 409.915L134.066 395.311" stroke="#ffffff" stroke-width="0.854442" stroke-miterlimit="10"/>
<path d="M83.4773 395.311V366.435" stroke="#ffffff" stroke-width="0.854442" stroke-miterlimit="10"/>
<path d="M83.4773 453.396V424.52" stroke="#ffffff" stroke-width="0.854442" stroke-miterlimit="10"/>
<path d="M83.4724 512.138L58.1751 497.534L32.8778 512.138V541.346L58.1751 555.955" stroke="#ffffff" stroke-width="0.854442" stroke-miterlimit="10"/>
<path d="M-43.0099 497.703L-17.7126 512.306L7.58473 497.703L-17.7126 483.093L-43.0099 497.703Z" stroke="#ffffff" stroke-width="0.854442" stroke-miterlimit="10"/>
<path d="M7.58473 556.334L-17.7126 541.73L-43.0099 556.334" stroke="#ffffff" stroke-width="0.854442" stroke-miterlimit="10"/>
<path d="M-43.0049 439.635L-17.7076 454.239L7.58974 439.635" stroke="#ffffff" stroke-width="0.854442" stroke-miterlimit="10"/>
<path d="M32.877 483.093L7.58496 497.703L32.877 512.306" stroke="#ffffff" stroke-width="0.854442" stroke-miterlimit="10"/>
</g>
</svg>
