<svg width="21" height="27" viewBox="0 0 21 27" fill="none" xmlns="http://www.w3.org/2000/svg">
<path id="Vector" d="M0.845104 23.3582C0.668352 23.8201 0.909377 23.9165 0.965616 23.9969C1.49587 24.3825 2.03417 24.6597 2.57647 24.969C5.45271 26.4955 8.16827 26.9414 11.0084 26.9414C16.793 26.9414 20.3842 23.8643 20.3842 18.9112V18.8148C20.3842 14.2353 16.331 12.5723 12.5268 11.3711L12.0327 11.2105C9.16451 10.2785 6.68998 9.47508 6.68998 7.58705V7.48662C6.68998 5.87174 8.13613 4.68268 10.3777 4.68268C12.8683 4.68268 15.8248 5.51021 17.729 6.56269C17.729 6.56269 18.2873 6.92422 18.4922 6.38191C18.6047 6.09268 19.5688 3.49764 19.6692 3.21645C19.7777 2.91115 19.5849 2.68619 19.388 2.56568C17.2148 1.24405 14.21 0.340206 11.1007 0.340206L10.5223 0.344227C5.22775 0.344227 1.53203 3.54183 1.53203 8.12533V8.22175C1.53203 13.0543 5.60938 14.621 9.42963 15.7136L10.0443 15.9024C12.8281 16.7581 15.2263 17.4932 15.2263 19.4535V19.55C15.2263 21.3416 13.6677 22.6753 11.153 22.6753C10.1768 22.6753 7.06357 22.6552 3.70126 20.5301C3.29553 20.2931 3.05852 20.1204 2.74519 19.9316C2.58049 19.8271 2.16673 19.6464 1.98596 20.1927L0.845104 23.3582Z" fill="white"/>
</svg>
